<?xml version="1.0" encoding="UTF-8" standalone="no"?>
<!DOCTYPE svg PUBLIC "-//W3C//DTD SVG 1.1//EN"
 "http://www.w3.org/Graphics/SVG/1.1/DTD/svg11.dtd">
<!-- Generated by graphviz version 14.1.2 (0)
 -->
<!-- Title: pipeline Pages: 1 -->
<svg width="375pt" height="510pt"
 viewBox="0.00 0.00 375.00 510.00" xmlns="http://www.w3.org/2000/svg" xmlns:xlink="http://www.w3.org/1999/xlink">
<g id="graph0" class="graph" transform="scale(1 1) rotate(0) translate(4 506.18)">
<title>pipeline</title>
<polygon fill="white" stroke="none" points="-4,4 -4,-506.18 370.67,-506.18 370.67,4 -4,4"/>
<!-- gene -->
<g id="node1" class="node">
<title>gene</title>
<polygon fill="#ddf4ff" stroke="#8c959f" points="224.43,-502.18 74.88,-502.18 74.88,-466.18 224.43,-466.18 224.43,-502.18"/>
<text xml:space="preserve" text-anchor="middle" x="149.65" y="-479.15" font-family="Helvetica,Arial,sans-serif" font-size="12.00" fill="#1f2328">A gene on the genome</text>
</g>
<!-- protein -->
<g id="node2" class="node">
<title>protein</title>
<polygon fill="#f6f8fa" stroke="#8c959f" points="176.55,-354.4 12.75,-354.4 12.75,-311.62 176.55,-311.62 176.55,-354.4"/>
<text xml:space="preserve" text-anchor="middle" x="94.65" y="-334.36" font-family="Helvetica,Arial,sans-serif" font-size="12.00" fill="#1f2328">Its protein, spelled out</text>
<text xml:space="preserve" text-anchor="middle" x="94.65" y="-321.61" font-family="Helvetica,Arial,sans-serif" font-size="12.00" fill="#1f2328">as a string of amino acids</text>
</g>
<!-- gene&#45;&gt;protein -->
<g id="edge1" class="edge">
<title>gene&#45;&gt;protein</title>
<path fill="none" stroke="#8c959f" d="M114.37,-465.82C108.72,-461.49 103.61,-456.29 100.15,-450.18 85.11,-423.62 85.92,-387.91 89.1,-363.13"/>
<polygon fill="#8c959f" stroke="#8c959f" points="91.5,-363.63 90.08,-356.35 86.65,-362.93 91.5,-363.63"/>
<text xml:space="preserve" text-anchor="middle" x="139.9" y="-440.68" font-family="Helvetica,Arial,sans-serif" font-size="10.00" fill="#57606a">g2p_mapper</text>
<text xml:space="preserve" text-anchor="middle" x="139.9" y="-430.18" font-family="Helvetica,Arial,sans-serif" font-size="10.00" fill="#57606a">genome ↔ protein</text>
</g>
<!-- find -->
<g id="node3" class="node">
<title>find</title>
<polygon fill="#f6f8fa" stroke="#8c959f" points="291.18,-413.18 146.12,-413.18 146.12,-370.4 291.18,-370.4 291.18,-413.18"/>
<text xml:space="preserve" text-anchor="middle" x="218.65" y="-393.14" font-family="Helvetica,Arial,sans-serif" font-size="12.00" fill="#1f2328">Look up 3D structures</text>
<text xml:space="preserve" text-anchor="middle" x="218.65" y="-380.39" font-family="Helvetica,Arial,sans-serif" font-size="12.00" fill="#1f2328">of that protein</text>
</g>
<!-- gene&#45;&gt;find -->
<g id="edge2" class="edge">
<title>gene&#45;&gt;find</title>
<path fill="none" stroke="#8c959f" d="M171.58,-465.8C176.85,-461.05 182.24,-455.69 186.65,-450.18 193.74,-441.33 200.15,-430.7 205.34,-421"/>
<polygon fill="#8c959f" stroke="#8c959f" points="207.5,-422.17 208.53,-414.82 203.14,-419.92 207.5,-422.17"/>
</g>
<!-- match -->
<g id="node5" class="node">
<title>match</title>
<polygon fill="#f6f8fa" stroke="#8c959f" points="171.3,-213.46 0,-213.46 0,-170.69 171.3,-170.69 171.3,-213.46"/>
<text xml:space="preserve" text-anchor="middle" x="85.65" y="-193.42" font-family="Helvetica,Arial,sans-serif" font-size="12.00" fill="#1f2328">Line the two sequences up</text>
<text xml:space="preserve" text-anchor="middle" x="85.65" y="-180.67" font-family="Helvetica,Arial,sans-serif" font-size="12.00" fill="#1f2328">residue by residue</text>
</g>
<!-- protein&#45;&gt;match -->
<g id="edge3" class="edge">
<title>protein&#45;&gt;match</title>
<path fill="none" stroke="#8c959f" d="M93.3,-311.21C91.76,-287.44 89.23,-248.39 87.51,-221.74"/>
<polygon fill="#8c959f" stroke="#8c959f" points="89.97,-221.9 87.08,-215.07 85.08,-222.22 89.97,-221.9"/>
</g>
<!-- chain -->
<g id="node4" class="node">
<title>chain</title>
<polygon fill="#f6f8fa" stroke="#8c959f" points="313.68,-295.62 129.62,-295.62 129.62,-252.84 313.68,-252.84 313.68,-295.62"/>
<text xml:space="preserve" text-anchor="middle" x="221.65" y="-275.58" font-family="Helvetica,Arial,sans-serif" font-size="12.00" fill="#1f2328">Pick the chain in the structure</text>
<text xml:space="preserve" text-anchor="middle" x="221.65" y="-262.83" font-family="Helvetica,Arial,sans-serif" font-size="12.00" fill="#1f2328">that is this protein</text>
</g>
<!-- find&#45;&gt;chain -->
<g id="edge4" class="edge">
<title>find&#45;&gt;chain</title>
<path fill="none" stroke="#8c959f" d="M219.19,-370.13C219.66,-351.84 220.36,-324.94 220.89,-304.45"/>
<polygon fill="#8c959f" stroke="#8c959f" points="223.34,-304.67 221.07,-297.61 218.44,-304.55 223.34,-304.67"/>
</g>
<!-- chain&#45;&gt;match -->
<g id="edge5" class="edge">
<title>chain&#45;&gt;match</title>
<path fill="none" stroke="#8c959f" d="M186.27,-252.38C168.49,-241.9 146.8,-229.11 128.11,-218.1"/>
<polygon fill="#8c959f" stroke="#8c959f" points="129.43,-216.03 122.15,-214.59 126.94,-220.25 129.43,-216.03"/>
</g>
<!-- official -->
<g id="node6" class="node">
<title>official</title>
<polygon fill="#f6f8fa" stroke="#8c959f" points="366.67,-219.84 200.62,-219.84 200.62,-164.31 366.67,-164.31 366.67,-219.84"/>
<text xml:space="preserve" text-anchor="middle" x="283.65" y="-199.8" font-family="Helvetica,Arial,sans-serif" font-size="12.00" fill="#1f2328">Cross&#45;check against the</text>
<text xml:space="preserve" text-anchor="middle" x="283.65" y="-187.05" font-family="Helvetica,Arial,sans-serif" font-size="12.00" fill="#1f2328">official residue numbering</text>
<text xml:space="preserve" text-anchor="middle" x="283.65" y="-174.3" font-family="Helvetica,Arial,sans-serif" font-size="12.00" fill="#1f2328">(optional)</text>
</g>
<!-- chain&#45;&gt;official -->
<g id="edge7" class="edge">
<title>chain&#45;&gt;official</title>
<path fill="none" stroke="#8c959f" stroke-dasharray="5,2" d="M237.62,-252.59C243.68,-244.75 250.75,-235.61 257.51,-226.87"/>
<polygon fill="#8c959f" stroke="#8c959f" points="259.32,-228.53 261.67,-221.5 255.45,-225.53 259.32,-228.53"/>
</g>
<!-- maps -->
<g id="node7" class="node">
<title>maps</title>
<polygon fill="#dafbe1" stroke="#8c959f" points="277.93,-131.31 89.38,-131.31 89.38,-88.53 277.93,-88.53 277.93,-131.31"/>
<text xml:space="preserve" text-anchor="middle" x="183.65" y="-111.27" font-family="Helvetica,Arial,sans-serif" font-size="12.00" fill="#1f2328">Result: a lookup table</text>
<text xml:space="preserve" text-anchor="middle" x="183.65" y="-98.52" font-family="Helvetica,Arial,sans-serif" font-size="12.00" fill="#1f2328">from any position to its partner</text>
</g>
<!-- match&#45;&gt;maps -->
<g id="edge6" class="edge">
<title>match&#45;&gt;maps</title>
<path fill="none" stroke="#8c959f" d="M111.14,-170.22C123.62,-160.02 138.76,-147.64 151.97,-136.83"/>
<polygon fill="#8c959f" stroke="#8c959f" points="153.25,-138.95 157.11,-132.62 150.14,-135.16 153.25,-138.95"/>
</g>
<!-- official&#45;&gt;maps -->
<g id="edge8" class="edge">
<title>official&#45;&gt;maps</title>
<path fill="none" stroke="#8c959f" stroke-dasharray="5,2" d="M249.79,-163.94C238.91,-155.21 226.88,-145.57 216.1,-136.93"/>
<polygon fill="#8c959f" stroke="#8c959f" points="217.74,-135.11 210.75,-132.64 214.68,-138.93 217.74,-135.11"/>
</g>
<!-- use -->
<g id="node8" class="node">
<title>use</title>
<polygon fill="#dafbe1" stroke="#8c959f" points="272.3,-55.53 95,-55.53 95,0 272.3,0 272.3,-55.53"/>
<text xml:space="preserve" text-anchor="middle" x="183.65" y="-35.49" font-family="Helvetica,Arial,sans-serif" font-size="12.00" fill="#1f2328">Click a residue in 3D,</text>
<text xml:space="preserve" text-anchor="middle" x="183.65" y="-22.74" font-family="Helvetica,Arial,sans-serif" font-size="12.00" fill="#1f2328">see the DNA; click the DNA,</text>
<text xml:space="preserve" text-anchor="middle" x="183.65" y="-9.99" font-family="Helvetica,Arial,sans-serif" font-size="12.00" fill="#1f2328">see the residue</text>
</g>
<!-- maps&#45;&gt;use -->
<g id="edge9" class="edge">
<title>maps&#45;&gt;use</title>
<path fill="none" stroke="#8c959f" d="M183.65,-88.28C183.65,-80.98 183.65,-72.55 183.65,-64.37"/>
<polygon fill="#8c959f" stroke="#8c959f" points="186.1,-64.5 183.65,-57.5 181.2,-64.5 186.1,-64.5"/>
</g>
</g>
</svg>
